<!DOCTYPE svg PUBLIC "-//W3C//DTD SVG 1.1//EN" "http://www.w3.org/Graphics/SVG/1.1/DTD/svg11.dtd">

<!-- Uploaded to: SVG Repo, www.svgrepo.com, Transformed by: SVG Repo Mixer Tools -->
<svg fill="#000000" height="36px" width="36px" version="1.1" id="Layer_1" xmlns="http://www.w3.org/2000/svg" xmlns:xlink="http://www.w3.org/1999/xlink" viewBox="0 0 512 512" xml:space="preserve">

<g id="SVGRepo_bgCarrier" stroke-width="0"/>

<g id="SVGRepo_tracerCarrier" stroke-linecap="round" stroke-linejoin="round"/>

<g id="SVGRepo_iconCarrier"> <g> <g> <path d="M512,98.491c0-26.307-10.244-51.041-28.848-69.644c-18.604-18.603-43.336-28.847-69.644-28.847 s-51.041,10.245-69.644,28.848l-18.177,18.177c-4.36-2.196-9.201-3.365-14.223-3.365c-8.46,0-16.413,3.295-22.396,9.277 c-9.889,9.889-11.851,24.741-5.902,36.61l-2.398,2.398c-9.981,9.981-15.478,23.251-15.478,37.366 c0,3.486,0.339,6.919,0.993,10.266c-10.351,12.232-23.727,28.652-39.851,48.926c-0.003,0.003-0.004,0.004-0.006,0.006 c-2.31,2.906-4.698,5.916-7.186,9.061C157.313,275.856,67.642,381.413,37.979,407.718c-0.067,0.059-0.126,0.127-0.191,0.189 c-0.072,0.068-0.15,0.13-0.22,0.199L6.625,439.05C2.353,443.321,0,449.001,0,455.041s2.353,11.72,6.625,15.991l34.343,34.343 c4.27,4.272,9.95,6.623,15.99,6.623h0.001c6.041,0,11.72-2.353,15.991-6.625l30.943-30.943c0.071-0.07,0.131-0.147,0.199-0.22 c0.062-0.065,0.128-0.125,0.189-0.191c26.306-29.664,131.863-119.335,210.146-181.26c3.146-2.489,6.156-4.877,9.061-7.186 c20.264-16.117,36.686-29.495,48.932-39.858c3.346,0.656,6.78,0.993,10.266,0.993c14.116,0,27.385-5.497,37.366-15.477l2.39-2.39 c4.36,2.196,9.199,3.365,14.221,3.365c8.46,0,16.416-3.295,22.398-9.277c5.983-5.983,9.277-13.937,9.277-22.397 c0-5.022-1.17-9.863-3.365-14.221l18.178-18.178C501.755,149.532,512,124.8,512,98.491z M59.598,492.022 c-0.952,0.951-2.061,1.093-2.638,1.093c-0.578,0-1.688-0.142-2.639-1.093l-34.343-34.343c-1.454-1.455-1.454-3.822,0-5.276 l24.267-24.267l39.621,39.621L59.598,492.022z M302.713,277.951c-74.92,59.266-170.665,140.354-205.712,176.236L57.814,415 c35.881-35.046,116.97-130.79,176.237-205.712c0.193-0.244,0.386-0.488,0.578-0.731l68.816,68.815 C303.201,277.564,302.957,277.757,302.713,277.951z M318.323,265.542l-71.866-71.866c10.738-13.441,20.123-24.991,28.057-34.527 c-0.534,0.645,5.75,7.028,6.252,7.53c0.001,0.001,64.555,64.554,64.569,64.567c0.523,0.522,6.966,6.695,7.515,6.238 C343.308,245.424,331.758,254.808,318.323,265.542z M406.699,217.883c-6.412,6.411-14.94,9.943-24.011,9.943 c-3.359,0-6.644-0.487-9.775-1.423c-0.053-0.018-0.103-0.043-0.156-0.059c-5.279-1.606-10.18-4.561-14.082-8.464l-64.555-64.555 c-3.898-3.898-6.849-8.812-8.464-14.082c-0.016-0.053-0.042-0.102-0.059-0.155c-0.937-3.131-1.424-6.416-1.424-9.775 c0-9.071,3.533-17.599,9.946-24.012l1.258-1.258l112.58,112.581L406.699,217.883z M445.709,209.579 c-2.416,2.416-5.628,3.747-9.044,3.747c-3.277,0-6.358-1.235-8.737-3.467c-0.031-0.031-0.059-0.065-0.091-0.096 c-0.12-0.115-0.242-0.224-0.374-0.341L302.586,84.544c-0.125-0.14-0.251-0.278-0.38-0.414c-0.02-0.021-0.044-0.04-0.065-0.062 c-4.691-5.007-4.605-12.889,0.281-17.777c2.416-2.415,5.628-3.745,9.043-3.745c3.278,0,6.362,1.236,8.741,3.472 c0.03,0.029,0.057,0.062,0.087,0.092c0.12,0.115,0.242,0.225,0.374,0.341l62.441,62.441l62.446,62.446 c0.116,0.131,0.233,0.261,0.355,0.388c0.025,0.026,0.053,0.048,0.078,0.073c2.232,2.378,3.468,5.459,3.468,8.736 C449.456,203.951,448.125,207.163,445.709,209.579z M452.753,171.829l-56.291-56.29l-56.29-56.291l17.046-17.046 c15.036-15.035,35.027-23.316,56.29-23.316s41.255,8.28,56.29,23.316c15.035,15.036,23.316,35.027,23.316,56.29 c0,21.263-8.28,41.255-23.316,56.29L452.753,171.829z"/> </g> </g> </g>

</svg>